<?xml version="1.0" encoding="UTF-8"?>
<svg xmlns="http://www.w3.org/2000/svg" version="1.1" width="240" height="278">
  <svg height="278" width="240" viewBox="0 0 240 278">
    <defs>
      <pattern id="stripes30" patternUnits="userSpaceOnUse" width="34.668294232627" height="100" patternTransform="rotate(30)">
        <rect x="0" width="11.5560980775423" height="200" fill="#28547e"/>
        <rect x="11.5560980775423" width="11.5560980775423" height="200" fill="#e8dcca"/>
        <rect x="23.1121961550847" width="11.5560980775423" height="200" fill="#d0312d"/>
      </pattern>
      <pattern id="stripes150" patternUnits="userSpaceOnUse" width="34.668294232627" height="100" patternTransform="rotate(150)">
        <rect x="0" width="11.5560980775423" height="200" fill="#28547e"/>
        <rect x="11.5560980775423" width="11.5560980775423" height="200" fill="#e8dcca"/>
        <rect x="23.1121961550847" width="11.5560980775423" height="200" fill="#d0312d"/>
      </pattern>
      <pattern id="stripes210" patternUnits="userSpaceOnUse" width="34.668294232627" height="100" patternTransform="rotate(210)">
        <rect x="0" width="11.5560980775423" height="200" fill="#28547e"/>
        <rect x="11.5560980775423" width="11.5560980775423" height="200" fill="#e8dcca"/>
        <rect x="23.1121961550847" width="11.5560980775423" height="200" fill="#d0312d"/>
      </pattern>
      <pattern id="stripes330" patternUnits="userSpaceOnUse" width="34.668294232627" height="100" patternTransform="rotate(330)">
        <rect x="0" width="11.5560980775423" height="200" fill="#28547e"/>
        <rect x="11.5560980775423" width="11.5560980775423" height="200" fill="#e8dcca"/>
        <rect x="23.1121961550847" width="11.5560980775423" height="200" fill="#d0312d"/>
      </pattern>
      <pattern id="stripes90" patternUnits="userSpaceOnUse" width="34.75" height="100" patternTransform="rotate(90)">
        <rect x="0" width="11.5833333333333" height="200" fill="#28547e"/>
        <rect x="11.5833333333333" width="11.5833333333333" height="200" fill="#e8dcca"/>
        <rect x="23.1666666666667" width="11.5833333333333" height="200" fill="#d0312d"/>
      </pattern>
      <pattern id="stripes270" patternUnits="userSpaceOnUse" width="34.75" height="100" patternTransform="rotate(270)">
        <rect x="0" width="11.5833333333333" height="200" fill="#28547e"/>
        <rect x="11.5833333333333" width="11.5833333333333" height="200" fill="#e8dcca"/>
        <rect x="23.1666666666667" width="11.5833333333333" height="200" fill="#d0312d"/>
      </pattern>
    </defs>
    <polygon points="120,0 240,69.5 120,139" fill="url(#stripes30)" opacity="0.8"/>
    <polygon points="240,208.5 120,278 120,139" fill="url(#stripes150)" opacity="0.8"/>
    <polygon points="120,278 0,208.5 120,139" fill="url(#stripes210)" opacity="0.8"/>
    <polygon points="0,69.5 120,0 120,139" fill="url(#stripes330)" opacity="0.8"/>
    <polygon points="240,69.5 240,208.5 120,139" fill="url(#stripes90)" opacity="0.8"/>
    <polygon points="0,208.5 0,69.5 120,139" fill="url(#stripes270)" opacity="0.8"/>
    <polygon points="120,3.475 236.525,71.2375 236.525,206.7625 120,274.525 3.475,206.7625 3.475,71.2375" fill="#ede3d5"/>
    <line x1="50%" y1="38%" x2="50%" y2="90%" stroke="black" stroke-width="0.5"/>
    <svg x="200" y="110" height="30" width="30" viewBox="0 0 104 104">
      <path fill="#28547e" d="M 4 0 L 9 0 A 4 4 0 0 0 17 0 L 22 0 A 4 4 0 0 0 30 0 L 35 0 A 4 4 0 0 0 43 0 L 48 0 A 4 4 0 0 0 56 0 L 61 0 A 4 4 0 0 0 69 0 L 74 0 A 4 4 0 0 0 82 0 L 87 0 A 4 4 0 0 0 95 0 L 100 0 A 4 4 0 0 0 104 4 L 104 9 A 4 4 0 0 0 104 17 L 104 22 A 4 4 0 0 0 104 30 L 104 35 A 4 4 0 0 0 104 43 L 104 48 A 4 4 0 0 0 104 56 L 104 61 A 4 4 0 0 0 104 69 L 104 74 A 4 4 0 0 0 104 82 L 104 87 A 4 4 0 0 0 104 95 L 104 100 A 4 4 0 0 0 100 104 L 95 104 A 4 4 0 0 0 87 104 L 82 104 A 4 4 0 0 0 74 104 L 69 104 A 4 4 0 0 0 61 104 L 56 104 A 4 4 0 0 0 48 104 L 43 104 A 4 4 0 0 0 35 104 L 30 104 A 4 4 0 0 0 22 104 L 17 104 A 4 4 0 0 0 9 104 L 4 104 A 4 4 0 0 0 0 100 L 0 95 A 4 4 0 0 0 0 87 L 0 82 A 4 4 0 0 0 0 74 L 0 69 A 4 4 0 0 0 0 61 L 0 56 A 4 4 0 0 0 0 48 L 0 43 A 4 4 0 0 0 0 35 L 0 30 A 4 4 0 0 0 0 22 L 0 17 A 4 4 0 0 0 0 9 L 0 4 A 4 4 0 0 0 4 0"/>
    </svg>
    <rect x="203" y="113" width="24" height="24" fill="white"/>
    <svg preserveAspectRatio="xMidYMid" x="205.5" y="115.5" width="19" height="19" viewBox="0 0 724 561">
      <defs>
        <linearGradient id="gradientFill-1" x1="0" x2="1" y1="0" y2="1" gradientUnits="objectBoundingBox" spreadMethod="pad">
          <stop offset="0" stop-color="rgb(203,206,208)" stop-opacity="1"/>
          <stop offset="1" stop-color="rgb(132,131,139)" stop-opacity="1"/>
        </linearGradient>
        <linearGradient id="gradientFill-2" x1="0" x2="1" y1="0" y2="1" gradientUnits="objectBoundingBox" spreadMethod="pad">
          <stop offset="0" stop-color="rgb(39,109,195)" stop-opacity="1"/>
          <stop offset="1" stop-color="rgb(22,92,170)" stop-opacity="1"/>
        </linearGradient>
      </defs>
      <path d="M361.453,485.937 C162.329,485.937 0.906,377.828 0.906,244.469 C0.906,111.109 162.329,3.000 361.453,3.000 C560.578,3.000 722.000,111.109 722.000,244.469 C722.000,377.828 560.578,485.937 361.453,485.937 ZM416.641,97.406 C265.289,97.406 142.594,171.314 142.594,262.484 C142.594,353.654 265.289,427.562 416.641,427.562 C567.992,427.562 679.687,377.033 679.687,262.484 C679.687,147.971 567.992,97.406 416.641,97.406 Z" fill="url(#gradientFill-1)" fill-rule="evenodd"/>
      <path d="M550.000,377.000 C550.000,377.000 571.822,383.585 584.500,390.000 C588.899,392.226 596.510,396.668 602.000,402.500 C607.378,408.212 610.000,414.000 610.000,414.000 L696.000,559.000 L557.000,559.062 L492.000,437.000 C492.000,437.000 478.690,414.131 470.500,407.500 C463.668,401.969 460.755,400.000 454.000,400.000 C449.298,400.000 420.974,400.000 420.974,400.000 L421.000,558.974 L298.000,559.026 L298.000,152.938 L545.000,152.938 C545.000,152.938 657.500,154.967 657.500,262.000 C657.500,369.033 550.000,377.000 550.000,377.000 ZM496.500,241.024 L422.037,240.976 L422.000,310.026 L496.500,310.002 C496.500,310.002 531.000,309.895 531.000,274.877 C531.000,239.155 496.500,241.024 496.500,241.024 Z" fill="url(#gradientFill-2)" fill-rule="evenodd"/>
    </svg>
    <text x="50%" y="33%" font-family="monospace" font-size="40" fill="black" text-anchor="middle">postcard</text>
    <text x="130" y="165" font-size="11" fill="black">From: <tspan fill="gray">Historical data</tspan></text>
    <line x1="130" y1="169" x2="230" y2="169" stroke="black" stroke-width="0.5"/>
    <text x="130" y="190" font-size="11" fill="black">To: <tspan fill="#659ec7">New RCT</tspan></text>
    <line x1="130" y1="194" x2="230" y2="194" stroke="black" stroke-width="0.5"/>
    <circle cx="37.5" cy="160" r="4" fill="gray"/>
    <path d="M 30.8333333333333 170.666666666667 A 6.66666666666667 6.66666666666667 0 0 1 44.1666666666667 170.666666666667 L 30.8333333333333 170.666666666667 Z" fill="gray"/>
    <circle cx="55" cy="160" r="4" fill="gray"/>
    <path d="M 48.3333333333333 170.666666666667 A 6.66666666666667 6.66666666666667 0 0 1 61.6666666666667 170.666666666667 L 48.3333333333333 170.666666666667 Z" fill="gray"/>
    <circle cx="72.5" cy="160" r="4" fill="gray"/>
    <path d="M 65.8333333333333 170.666666666667 A 6.66666666666667 6.66666666666667 0 0 1 79.1666666666667 170.666666666667 L 65.8333333333333 170.666666666667 Z" fill="gray"/>
    <circle cx="90" cy="160" r="4" fill="gray"/>
    <path d="M 83.3333333333333 170.666666666667 A 6.66666666666667 6.66666666666667 0 0 1 96.6666666666667 170.666666666667 L 83.3333333333333 170.666666666667 Z" fill="gray"/>
    <circle cx="46.25" cy="140" r="4" fill="gray"/>
    <path d="M 39.5833333333333 150.666666666667 A 6.66666666666667 6.66666666666667 0 0 1 52.9166666666667 150.666666666667 L 39.5833333333333 150.666666666667 Z" fill="gray"/>
    <circle cx="63.75" cy="140" r="4" fill="gray"/>
    <path d="M 57.0833333333333 150.666666666667 A 6.66666666666667 6.66666666666667 0 0 1 70.4166666666667 150.666666666667 L 57.0833333333333 150.666666666667 Z" fill="gray"/>
    <circle cx="81.25" cy="140" r="4" fill="gray"/>
    <path d="M 74.5833333333333 150.666666666667 A 6.66666666666667 6.66666666666667 0 0 1 87.9166666666667 150.666666666667 L 74.5833333333333 150.666666666667 Z" fill="gray"/>
    <circle cx="38.75" cy="190" r="6" fill="#659ec7"/>
    <path d="M 28.75 206 A 10 10 0 0 1 48.75 206 L 28.75 206 Z" fill="#659ec7"/>
    <circle cx="63.75" cy="190" r="6" fill="#659ec7"/>
    <path d="M 53.75 206 A 10 10 0 0 1 73.75 206 L 53.75 206 Z" fill="#659ec7"/>
    <circle cx="88.75" cy="190" r="6" fill="#659ec7"/>
    <path d="M 78.75 206 A 10 10 0 0 1 98.75 206 L 78.75 206 Z" fill="#659ec7"/>
  </svg>
</svg>
